<svg xmlns="http://www.w3.org/2000/svg" width="176" height="44" viewBox="0 0 176 44" fill="none">
  <rect x="1" y="1" width="42" height="42" rx="12" fill="url(#iconGradient)"/>
  <rect x="1" y="1" width="42" height="42" rx="12" stroke="rgba(255,255,255,0.18)" stroke-width="2"/>
  <path d="M15.5 12.5h16v5.1H21.4v4.1h8.8v5H21.4v8.8h-5.9v-23Z" fill="white"/>
  <path d="M53.5 11.4h16.9v5.2H59.6v5h9.7v5.1h-9.7v8.9h-6.1V11.4Zm19.8 8.2h5.6v9.1c0 1.7.8 2.7 2.3 2.7 1.4 0 2.4-1 2.4-2.7v-9.1h5.6v16h-5.3l-.1-2.2c-1 1.5-2.5 2.6-4.9 2.6-3.5 0-5.6-2.4-5.6-6.4v-10Zm20-8.9h5.6v24.9h-5.6V10.7Zm9.8 0h5.6v24.9h-5.6V10.7Z" fill="white"/>
  <path d="M113 11.4h10.1c5.9 0 9.6 3 9.6 8.2v.1c0 5.5-4.2 8.4-9.9 8.4h-3.8v7.5h-6V11.4Zm9.7 11.9c2.4 0 3.9-1.3 3.9-3.3v-.1c0-2.2-1.5-3.3-4-3.3h-3.6v6.7h3.7Zm12.1 4.3v-.1c0-4.6 3.7-8.3 8.9-8.3 5.1 0 8.8 3.6 8.8 8.2v.1c0 4.6-3.7 8.3-8.9 8.3-5.1 0-8.8-3.6-8.8-8.2Zm12.2 0v-.1c0-2-1.4-3.7-3.4-3.7-2.1 0-3.3 1.6-3.3 3.6v.1c0 2 1.4 3.7 3.4 3.7 2 0 3.3-1.6 3.3-3.6Zm7.1 5.9 2.1-3.5c1.9 1.2 4 1.8 5.7 1.8 1 0 1.5-.3 1.5-.9v-.1c0-.7-1-.9-2.8-1.4-3.3-.8-5.9-1.8-5.9-5v-.1c0-3.4 2.7-5.2 6.4-5.2 2.3 0 4.8.7 6.7 1.9l-1.9 3.7c-1.7-.9-3.6-1.5-4.9-1.5-.9 0-1.3.4-1.3.8v.1c0 .7 1 .9 2.8 1.4 3.3.9 5.9 1.9 5.9 5v.1c0 3.5-2.6 5.3-6.6 5.3-2.7-.1-5.4-.9-7.7-2.5Z" fill="#60A5FA"/>
  <defs>
    <linearGradient id="iconGradient" x1="4" y1="4" x2="40" y2="40" gradientUnits="userSpaceOnUse">
      <stop stop-color="#2563EB"/>
      <stop offset="1" stop-color="#0EA5E9"/>
    </linearGradient>
  </defs>
</svg>
